<?xml version="1.0" encoding="utf-8"?>
<!-- Generator: Adobe Illustrator 16.0.0, SVG Export Plug-In . SVG Version: 6.00 Build 0)  -->
<!DOCTYPE svg PUBLIC "-//W3C//DTD SVG 1.1//EN" "http://www.w3.org/Graphics/SVG/1.1/DTD/svg11.dtd">
<svg version="1.1" id="Capa_1" xmlns="http://www.w3.org/2000/svg" xmlns:xlink="http://www.w3.org/1999/xlink" x="0px" y="0px"
	 width="400.08px" height="400.08px" viewBox="0 0 400.08 400.08" enable-background="new 0 0 400.08 400.08" xml:space="preserve">
<path fill="#F0583D" d="M396.656,199.163c0,107.87-87.446,195.329-195.327,195.329C93.459,394.492,6,307.033,6,199.163
	C6,91.283,93.459,3.836,201.329,3.836C309.21,3.836,396.656,91.283,396.656,199.163z"/>
<path fill="#FAAD46" d="M260.885,109.434L260.885,109.434c-32.641-32.642-85.566-32.642-118.213,0l0,0
	c-29.412,29.413-32.724,84.795-7.762,118.074l66.869,96.572l66.868-96.572C293.61,194.229,290.298,138.846,260.885,109.434z
	 M202.593,195.317c-15.24,0-27.592-12.352-27.592-27.591c0-15.241,12.352-27.593,27.592-27.593c15.24,0,27.593,12.352,27.593,27.593
	C230.186,182.966,217.833,195.317,202.593,195.317z"/>
<path fill="#FFD176" d="M201.778,195.297c-14.862-0.432-26.777-12.604-26.777-27.571c0-14.968,11.916-27.141,26.777-27.572V84.953
	c-21.391,0-42.784,8.161-59.106,24.481c-29.412,29.413-32.724,84.795-7.762,118.074l66.868,96.571V195.297z"/>
</svg>
