<?xml version="1.0" encoding="utf-8"?>
<!-- Generator: Adobe Illustrator 16.0.0, SVG Export Plug-In . SVG Version: 6.00 Build 0)  -->
<!DOCTYPE svg PUBLIC "-//W3C//DTD SVG 1.1//EN" "http://www.w3.org/Graphics/SVG/1.1/DTD/svg11.dtd">
<svg version="1.1" id="Layer_1" xmlns="http://www.w3.org/2000/svg" xmlns:xlink="http://www.w3.org/1999/xlink" x="0px" y="0px"
	 width="400.08px" height="400.08px" viewBox="0 0 400.08 400.08" enable-background="new 0 0 400.08 400.08" xml:space="preserve">
<path fill="#FAAD46" d="M397.389,200.051c0,48.764-17.717,93.504-47.221,127.971c-33.229,38.804-81.056,64.611-135.108,68.947
	c-3.086,0.312-6.207,0.312-9.314,0.626h-0.61c-0.938,0-1.877,0-3.122,0c-0.611,0-1.229,0-1.535,0c-0.633,0-1.258,0-1.564,0h-0.938
	c-0.924,0-1.848,0-3.092,0c-3.122,0-6.207-0.313-9.328-0.626c-54.046-4.03-102.185-29.803-135.408-68.947
	C20.636,293.555,2.933,248.814,2.933,200.051C2.933,91.044,91.134,2.83,200.158,2.83C309.175,2.83,397.389,91.044,397.389,200.051z"
	/>
<polygon fill="#FFFFFF" points="162.271,237.944 238.052,237.944 286.203,323.983 264.455,352.243 135.866,352.243 114.111,323.983 
	"/>
<path fill="#FFFFFF" d="M238.976,238.868c-0.307-0.306-0.307-0.924-0.612-1.223c0,0-0.618,3.1-4.642,8.375
	c-17.106,21.129-50.03,21.129-66.794,0c-4.038-4.963-4.657-8.375-4.657-8.375c-0.306,0.299-0.306,0.612-0.611,0.917
	c1.23-2.46,2.147-5.269,2.46-8.069l0.946-11.177l0,0l2.481-34.466h65.847l3.413,45.643c0.307,2.487,0.938,4.962,1.862,7.152
	C238.363,237.944,238.669,238.562,238.976,238.868z"/>
<g>
	<path fill="#F0583D" d="M194.576,397.281c-58.091-1.549-109.635-28.253-144.756-69.26c15.848-33.229,39.778-35.732,39.778-35.732
		c42.23-20.482,67.391-49.056,68.941-50.919l-9.008,19.565l18.016,77.352L194.576,397.281z"/>
	<path fill="#F0583D" d="M350.487,328.021c-35.1,41.007-86.664,67.711-144.742,69.26l27.023-58.702l18.022-77.33l-9.021-19.565
		c1.558,1.862,26.724,30.429,68.962,50.605C310.418,291.983,334.334,294.792,350.487,328.021z"/>
</g>
<path fill="#E5E8EC" d="M235.868,224.919c-10.245,12.108-22.345,19.864-35.71,19.864c-13.359,0-25.467-7.756-35.733-19.864
	l0.334-4.365l0,0l2.474-34.474h65.841L235.868,224.919z"/>
<g>
	<path fill="#FFFFFF" d="M143.324,112.483c-3.739,7.76-5.901,17.688-5.901,29.184c0,43.184,28.26,97.201,63.054,97.201
		c34.78,0,63.039-54.018,63.039-97.201c0-11.801-2.182-21.424-5.9-29.184H143.324L143.324,112.483z"/>
</g>
<g>
	<path fill="#2B3B4E" d="M144.874,109.056h-14.617c-1.842,6.207-2.766,13.032-2.766,19.885c0,15.524,4.963,30.123,13.65,41.925
		c-2.474-9.943-3.718-19.872-3.718-29.199C137.423,128.312,139.897,117.754,144.874,109.056z"/>
	<path fill="#2B3B4E" d="M255.447,109.056c4.644,8.389,7.459,19.256,7.459,32.611c0,9.328-1.267,19.562-3.739,29.199
		c8.716-11.802,13.678-26.096,13.678-41.925c0-6.853-0.938-13.678-2.808-19.885H255.447L255.447,109.056z"/>
	<path fill="#2B3B4E" d="M273.151,129.247c0,4.966-0.612,9.946-1.565,14.604c-2.474-0.938-5.58,0-8.374,2.165
		c0-1.549,0-2.797,0-4.348c0-0.924,0-2.183,0-3.107c-0.306-12.74-13.032-20.806-24.849-16.135
		c-10.251,4.013-23.61,6.516-38.205,6.516c-14.604,0-27.636-2.502-38.193-6.516c-11.816-4.671-24.222,3.395-24.855,16.135
		c0,0.924,0,2.183,0,3.107c0,1.55,0,2.798,0,4.348c-2.794-2.165-5.915-3.103-8.389-2.165c-0.924-4.657-1.55-9.637-1.55-14.604
		c0-7.159,0.938-13.674,3.086-20.191c0.327-0.629,0.327-1.244,0.647-2.168c19.565-3.732,43.46-6.225,69.254-6.225
		c25.771,0,49.374,2.183,69.26,6.225c0.306,0.615,0.306,1.229,0.619,2.168C271.906,115.263,273.151,122.088,273.151,129.247z"/>
</g>
<path fill="#3F4040" d="M275.646,136.381c-11.191,11.187-42.253-6.516-75.488-4.966c-33.23-1.549-63.979,16.153-75.461,4.966
	c-6.534-7.44-1.571-23.593,10.238-37.9c12.74-15.83,36.635-31.659,64.91-31.044c28.572-0.615,52.177,15.214,64.917,31.044
	C276.876,112.483,281.853,128.941,275.646,136.381z"/>
<path fill="#3F4040" d="M277.182,117.754c0,0.306,0,0.936,0,1.245c-23.298-5.595-49.383-7.148-77.023-7.148
	c-27.636,0-53.734,1.863-77.032,7.148c0-0.309,0-0.938,0-1.245c0-46.581,34.474-83.234,77.032-83.234
	C242.708,34.826,277.182,71.173,277.182,117.754z"/>
<path fill="#F7B34C" d="M238.052,103.77h-75.781c-3.427-18.012,0-46.585,12.093-64.288c8.098-3.089,16.786-4.962,25.794-4.962
	c9,0,17.702,1.874,25.771,4.962C238.052,57.185,241.463,85.758,238.052,103.77z"/>
<path fill="#3F4040" d="M182.156,37.314c-10.252,15.833-17.731,42.849-19.885,68.315h75.781
	c-2.184-25.466-9.635-52.482-19.886-68.315c-3.106-4.657-8.069-7.159-13.338-7.159h-9.007
	C190.226,30.155,185.249,32.966,182.156,37.314z"/>
<path fill="#F0583D" d="M149.531,260.936c0,0,52.355,78.702,101.26,0.313l54.579,90.994l-99.625,45.038h-16.891l-74.743-55.539
	L149.531,260.936z"/>
</svg>
